<?xml version="1.0" encoding="iso-8859-1"?>
<!-- Uploaded to: SVG Repo, www.svgrepo.com, Generator: SVG Repo Mixer Tools -->
<!DOCTYPE svg PUBLIC "-//W3C//DTD SVG 1.1//EN" "http://www.w3.org/Graphics/SVG/1.1/DTD/svg11.dtd">
<svg fill="#000000" height="800px" width="800px" version="1.1" id="Capa_1" xmlns="http://www.w3.org/2000/svg" xmlns:xlink="http://www.w3.org/1999/xlink" 
	 viewBox="0 0 310.002 310.002" xml:space="preserve">
<g>
	<path d="M309.988,118.751l-7.746-106.366c-0.18-2.475-2.148-4.443-4.623-4.623L191.252,0.016c-1.469-0.118-2.872,0.424-3.898,1.451
		L1.466,187.355c-1.953,1.952-1.953,5.118,0,7.07l114.112,114.112c0.976,0.977,2.256,1.465,3.535,1.465
		c1.279,0,2.56-0.488,3.535-1.465L308.536,122.65C309.564,121.623,310.094,120.201,309.988,118.751z M130.707,227.429
		c-6.68,6.681-15.243,10.417-24.114,10.519c-0.011,0-0.022,0-0.034,0c-0.783,0-1.536-0.307-2.097-0.855
		c-0.569-0.557-0.895-1.315-0.903-2.111l-0.068-6c-0.019-1.657,1.31-3.015,2.966-3.034c5.799-0.065,11.251-2.487,15.767-7.003
		c2.527-2.529,7.938-8.92,3.589-13.631c-1.026-1.107-2.048-1.581-3.409-1.581c-2.877,0-7.053,2.078-12.212,4.796
		C104.432,211.562,97.905,215,91.082,215c-4.968,0-9.369-1.881-13.08-5.593c-4.781-4.78-6.659-10.744-5.429-17.246
		c0.991-5.246,4.022-10.525,8.766-15.268c4.928-4.929,10.586-8.194,17.299-9.982c1.601-0.431,3.244,0.523,3.671,2.126l1.545,5.797
		c0.427,1.601-0.524,3.244-2.126,3.671c-4.616,1.23-8.51,3.479-11.904,6.873c-2.943,2.944-4.934,6.229-5.459,9.012
		c-0.479,2.53,0.195,4.605,2.123,6.533c1.448,1.449,2.899,2.096,4.703,2.096c3.431,0,8.102-2.314,13.408-5.107
		c5.522-2.907,11.773-6.198,17.982-6.198c4.635,0,8.686,1.834,12.039,5.45C142.188,205.362,140.614,217.523,130.707,227.429z
		 M176.386,185.091c-6.837,6.834-15.612,10.598-24.711,10.598c-9.498,0-18.789-4.061-26.16-11.433
		c-7.182-7.181-11.219-16.239-11.368-25.508c-0.15-9.306,3.619-18.282,10.616-25.278c6.707-6.709,14.914-10.255,23.733-10.255
		c9.38,0,18.721,4.176,26.302,11.757l2.121,2.121c1.172,1.171,1.172,3.071,0,4.242l-38.249,38.25
		c4.032,2.638,8.473,4.018,13.005,4.018c6.035,0,11.645-2.419,16.225-6.997c5.383-5.385,8.197-12.029,7.926-18.708
		c-0.033-0.795,0.252-1.57,0.791-2.155c0.539-0.585,1.289-0.932,2.084-0.964l5.994-0.244c1.677-0.077,3.052,1.219,3.119,2.875
		C188.226,167.476,184.167,177.306,176.386,185.091z M227.13,134.345c-6.871,6.872-15.733,10.656-24.954,10.656
		c-9.518,0-18.782-4.021-26.083-11.324c-7.184-7.184-11.204-16.263-11.32-25.565c-0.117-9.332,3.696-18.348,10.736-25.388
		c6.878-6.879,15.75-10.667,24.98-10.667c9.494,0,18.718,3.996,25.973,11.251C241.443,98.286,241.724,119.751,227.13,134.345z
		 M260.314,68.064c-11.028,0-20-8.972-20-19.999c0-11.028,8.972-20.001,20-20.001c11.028,0,20,8.973,20,20.001
		C280.314,59.092,271.342,68.064,260.314,68.064z"/>
	<path d="M200.49,84.057c-6.024,0-11.883,2.54-16.496,7.151c-9.676,9.677-9.431,23.97,0.584,33.984
		c5.036,5.035,11.286,7.809,17.599,7.809c6.015,0,11.864-2.536,16.47-7.141c9.677-9.678,9.395-24.005-0.668-34.068
		C212.989,86.804,206.778,84.057,200.49,84.057z"/>
	<path d="M148.52,135.198c-5.57,0-10.851,2.337-15.273,6.757c-8.223,8.224-9.3,19.6-3.06,29.144l31.508-31.509
		C157.504,136.706,153.001,135.198,148.52,135.198z"/>
</g>
</svg>