<?xml version="1.0" encoding="utf-8"?>
<!-- Uploaded to: SVG Repo, www.svgrepo.com, Generator: SVG Repo Mixer Tools -->
<svg fill="#000000" height="800px" width="800px" version="1.1" id="Layer_1" xmlns="http://www.w3.org/2000/svg" xmlns:xlink="http://www.w3.org/1999/xlink" 
	 viewBox="0 0 128 128" xml:space="preserve">
<path d="M90.2,33l-11.1-8.6V6.7C74.7,9,66.9,16.4,68.9,26.8c0.2,3.1,2.6,11,1.6,15.3c-1.4,5.7-1.9,5.9-10.1,16.1L19,108.7
	c-2.8,3.1-2.5,8,0.7,10.7c3.1,2.8,7.9,2.5,10.7-0.6l51.8-63.6c3.3-4.1,9.3-7.7,14.5-9c8.9-2.7,15.5-11,15.5-20.8
	c0-7.9-4.6-15.4-10.6-18.6l0,17.5L90.2,33z"/>
</svg>